<svg xmlns="http://www.w3.org/2000/svg" width="42" height="42" fill="none" viewBox="0 0 42 42"><rect width="42" height="42" fill="#1e252b" rx="8"/><path fill="#fff" fill-opacity=".38" d="M23.5 23.25h-1.25V22a1.25 1.25 0 0 0-2.5 0v1.25H18.5a1.25 1.25 0 0 0 0 2.5h1.25V27a1.25 1.25 0 0 0 2.5 0v-1.25h1.25a1.25 1.25 0 0 0 0-2.5"/><path fill="#fff" fill-opacity=".38" d="M30.375 15.813h-8.75l-3.288-3.976a1.25 1.25 0 0 0-.962-.462h-5.75A3.09 3.09 0 0 0 8.5 14.412v15.175a3.09 3.09 0 0 0 3.125 3.038h18.75a3.09 3.09 0 0 0 3.125-3.038V18.85a3.09 3.09 0 0 0-3.125-3.038M31 29.563a.574.574 0 0 1-.625.537h-18.75a.577.577 0 0 1-.625-.538v-15.15a.574.574 0 0 1 .625-.537h5.163l3.25 3.975a1.25 1.25 0 0 0 .962.462h9.375a.576.576 0 0 1 .625.538z"/></svg>