<svg xmlns="http://www.w3.org/2000/svg" width="64" height="64" fill="none" viewBox="0 0 64 64"><g opacity=".78"><path fill="#19bcfe" d="M42.667 42.667c5.89 0 10.666-4.776 10.666-10.667s-4.775-10.667-10.666-10.667S32 26.11 32 32s4.776 10.667 10.667 10.667"/><path fill="#09cf83" fill-rule="evenodd" d="M21.333 64A10.667 10.667 0 0 0 32 53.333V42.667H21.333a10.667 10.667 0 1 0 0 21.333" clip-rule="evenodd"/><path fill="#a259ff" fill-rule="evenodd" d="M21.333 42.667H32V21.333H21.333a10.667 10.667 0 1 0 0 21.334" clip-rule="evenodd"/><path fill="#f24e1e" fill-rule="evenodd" d="M21.333 21.333H32V0H21.333a10.667 10.667 0 1 0 0 21.333" clip-rule="evenodd"/><path fill="#ff7262" fill-rule="evenodd" d="M42.667 21.333H32V0h10.667a10.667 10.667 0 0 1 0 21.333" clip-rule="evenodd"/></g></svg>