<svg xmlns="http://www.w3.org/2000/svg" width="589" height="568" fill="none" viewBox="0 0 589 568"><path fill="url(#a)" d="M335.43 200.382c-7.226-3.269-12.411-3.335-15.556-.267-3.23 3.069-4.76 8.273-4.76 15.545v39.361c0 7.471-.85 13.676-2.636 18.613-1.785 5.137-4.76 8.739-8.84 10.874-3.995 2.202-9.436 2.735-16.321 1.735-6.715-.934-15.131-3.736-25.162-8.273l-4.76-2.202v-31.021l6.036 2.735c7.225 3.269 11.985 3.669 14.365 1.334q3.826-3.502 3.826-14.41v-34.691c0-9.073 1.105-16.211 3.4-21.415 2.21-5.27 6.715-8.606 13.431-10.074-6.716-7.538-11.221-15.01-13.431-22.282s-3.315-15.411-3.315-24.484V86.769c0-7.272-1.275-13.276-3.826-17.88-2.38-4.536-7.225-8.472-14.365-11.74l-6.036-2.736V23.39l4.76 2.202c10.031 4.536 18.447 9.406 25.162 14.543 6.885 5.204 12.326 10.674 16.321 16.545 4.165 5.871 7.14 12.142 8.84 18.88 1.786 6.538 2.636 13.543 2.636 21.015v39.361c0 7.272 1.615 13.943 4.76 19.881 3.23 5.937 8.415 10.607 15.556 13.809z" opacity=".4"/><path fill="url(#b)" d="M153.349 86.369c7.225 3.269 12.41 3.335 15.556.266 3.23-3.068 4.76-8.272 4.76-15.544v-39.36c0-7.473.85-13.677 2.635-18.614 1.785-5.137 4.675-8.74 8.671-10.94 4.165-2.136 9.605-2.67 16.32-1.735 6.886 1 15.386 3.802 25.417 8.405l4.76 2.202v31.022l-6.035-2.735c-7.226-3.27-12.071-3.736-14.621-1.401-2.38 2.401-3.57 7.205-3.57 14.543V87.17c0 9.007-1.105 16.212-3.4 21.415-2.211 5.271-6.716 8.606-13.431 10.074 6.715 7.539 11.22 15.011 13.431 22.282s3.315 15.411 3.315 24.484v34.691q0 10.908 3.57 17.813c2.55 4.603 7.395 8.606 14.621 11.808l6.035 2.735v31.022l-4.76-2.201c-10.031-4.537-18.531-9.474-25.417-14.611-6.715-5.137-12.155-10.607-16.321-16.545-3.995-5.804-6.885-12.075-8.585-18.746-1.785-6.538-2.635-13.543-2.635-21.015v-39.361c0-7.272-1.615-13.943-4.76-19.881-3.231-5.937-8.416-10.607-15.556-13.809z" opacity=".4"/><path fill="url(#c)" d="m359.996 8.58 179.446 81.325-.085 337.637-179.446-81.257z" opacity=".15"/><path fill="#587298" d="m326.249 52.812 142.809 64.645v31.022L326.249 83.834z"/><path fill="url(#d)" d="m383.373 196.446 135.328 61.31v93.866l-135.328-61.31z" opacity=".2"/><path fill="#fff" d="m382.012 124.462 137.368 62.244v10.607l-137.368-62.244zM382.012 145.81l118.752 53.771v10.608l-118.752-53.771zM382.012 166.892l100.816 45.632v10.607l-100.816-45.632z" opacity=".15"/><path fill="url(#e)" d="m359.996 8.58 179.446 81.325v45.231L359.911 53.879z" opacity=".2"/><path fill="#fff" d="M404.794 51.811c0 6.871-5.101 10.074-11.391 7.205s-11.391-10.674-11.391-17.546 5.101-10.073 11.391-7.205c6.29 2.87 11.391 10.741 11.391 17.546" opacity=".2"/><path fill="url(#f)" d="M36.637 111.987 589 362.163 588.915 700 36.552 449.824z" opacity=".15"/><path fill="#ea8c4f" d="m0 195.245 142.723 64.646v31.021L0 226.334z"/><path fill="#fff" d="m73.869 280.505 316.899 143.568v10.607l-316.9-143.567zM73.869 301.854l273.376 123.82v10.607L73.869 312.461zM73.869 323.001l232.659 105.408v10.607L73.868 333.609z" opacity=".15"/><path fill="url(#g)" d="m287.742 457.496 278.647 126.222v93.866L287.742 551.362z" opacity=".2"/><path fill="#fff" d="m308.739 485.583 41.992 19.013v31.022l-41.992-19.014zM360.167 510.4l41.992 19.013v31.022l-41.992-19.013zM411.85 533.416l41.992 19.013v31.022l-41.992-19.013zM463.532 557.9l41.993 19.013v31.022l-41.993-19.013z" opacity=".15"/><path fill="url(#h)" d="m22.016 333.542 231.979 105.074v93.866l-231.98-105.14z" opacity=".2"/><path fill="#fff" d="m45.392 368.167 184.291 83.458v10.608l-184.29-83.459zM45.392 389.515l147.569 66.847v10.608L45.392 400.056z" opacity=".15"/><path fill="url(#i)" d="m36.637 111.987 551.598 249.909v45.765L36.637 157.819z" opacity=".2"/><path fill="#fff" d="M96.736 162.089c0 6.871-5.1 10.073-11.39 7.205s-11.392-10.674-11.392-17.546 5.1-10.074 11.391-7.205c6.29 2.869 11.39 10.741 11.39 17.546" opacity=".2"/><defs><linearGradient id="a" x1="384.36" x2="289.512" y1="14.028" y2="223.536" gradientUnits="userSpaceOnUse"><stop stop-color="#424c57"/><stop offset=".903" stop-color="#fff" stop-opacity="0"/></linearGradient><linearGradient id="b" x1="303.984" x2="209.121" y1="1.187" y2="210.676" gradientUnits="userSpaceOnUse"><stop stop-color="#414b56"/><stop offset=".903" stop-color="#fff" stop-opacity="0"/></linearGradient><linearGradient id="c" x1="542.816" x2="425.908" y1="91.439" y2="349.515" gradientUnits="userSpaceOnUse"><stop stop-color="#fff"/><stop offset="1" stop-color="#fff" stop-opacity="0"/></linearGradient><linearGradient id="d" x1="476.95" x2="444.457" y1="238.789" y2="310.515" gradientUnits="userSpaceOnUse"><stop stop-color="#fff"/><stop offset="1" stop-color="#fff" stop-opacity="0"/></linearGradient><linearGradient id="e" x1="421.521" x2="456.721" y1="9.282" y2="136.26" gradientUnits="userSpaceOnUse"><stop stop-color="#424c58"/><stop offset="1" stop-color="#fff" stop-opacity="0"/></linearGradient><linearGradient id="f" x1="405.97" x2="344.048" y1="279.259" y2="415.986" gradientUnits="userSpaceOnUse"><stop stop-color="#fff"/><stop offset="1" stop-color="#fff" stop-opacity="0"/></linearGradient><linearGradient id="g" x1="452.987" x2="420.495" y1="532.335" y2="604.062" gradientUnits="userSpaceOnUse"><stop stop-color="#fff"/><stop offset="1" stop-color="#fff" stop-opacity="0"/></linearGradient><linearGradient id="h" x1="163.887" x2="131.395" y1="397.778" y2="469.505" gradientUnits="userSpaceOnUse"><stop stop-color="#434d58"/><stop offset="1" stop-color="#fff" stop-opacity="0"/></linearGradient><linearGradient id="i" x1="173.501" x2="316.723" y1="75.112" y2="384.241" gradientUnits="userSpaceOnUse"><stop stop-color="#546f94"/><stop offset="1" stop-color="#fff" stop-opacity="0"/></linearGradient></defs></svg>