<svg xmlns="http://www.w3.org/2000/svg" width="58" height="58" fill="none" viewBox="0 0 58 58"><rect width="58" height="58" fill="#1e252b" rx="8"/><path fill="#fff" fill-opacity=".78" d="M28.999 22.065a6.936 6.936 0 1 0 0 13.873 6.936 6.936 0 0 0 0-13.873m0 11.44a4.506 4.506 0 1 1 0-9.01 4.506 4.506 0 0 1 0 9.01M36.209 23.428a1.617 1.617 0 1 0 0-3.235 1.617 1.617 0 0 0 0 3.234"/><path fill="#fff" fill-opacity=".78" d="M41.8 20.166a6.9 6.9 0 0 0-3.95-3.948 9.9 9.9 0 0 0-3.279-.63c-1.444-.063-1.902-.08-5.565-.08s-4.132 0-5.565.08a9.8 9.8 0 0 0-3.276.63 6.9 6.9 0 0 0-3.95 3.948 9.9 9.9 0 0 0-.628 3.28c-.064 1.442-.084 1.9-.084 5.564 0 3.663 0 4.13.084 5.565a9.9 9.9 0 0 0 .628 3.28 6.91 6.91 0 0 0 3.951 3.949 9.9 9.9 0 0 0 3.278.675c1.445.063 1.902.082 5.565.082s4.133 0 5.565-.082a9.9 9.9 0 0 0 3.279-.629 6.92 6.92 0 0 0 3.95-3.95 9.9 9.9 0 0 0 .628-3.278c.065-1.443.084-1.9.084-5.565s0-4.13-.084-5.565a9.9 9.9 0 0 0-.631-3.326m-1.828 14.298a7.6 7.6 0 0 1-.466 2.532 4.48 4.48 0 0 1-2.568 2.567 7.5 7.5 0 0 1-2.505.466c-1.425.066-1.827.083-5.481.083-3.657 0-4.03 0-5.483-.083a7.4 7.4 0 0 1-2.503-.466 4.48 4.48 0 0 1-2.579-2.567 7.6 7.6 0 0 1-.466-2.503c-.064-1.425-.08-1.827-.08-5.481 0-3.656 0-4.03.08-5.483.01-.863.168-1.72.466-2.53a4.48 4.48 0 0 1 2.579-2.568 7.5 7.5 0 0 1 2.503-.467c1.427-.064 1.828-.082 5.483-.082 3.656 0 4.03 0 5.481.082.856.01 1.703.169 2.505.467a4.49 4.49 0 0 1 2.568 2.568c.295.802.453 1.649.466 2.503.065 1.427.081 1.827.081 5.483 0 3.654 0 4.047-.064 5.481h-.017z"/></svg>