<svg xmlns="http://www.w3.org/2000/svg" width="65" height="64" fill="none" viewBox="0 0 65 64"><g clip-path="url(#a)" opacity=".78"><path fill="#f06" d="M0 4a4 4 0 0 1 4-4h57a4 4 0 0 1 4 4v55.823a4 4 0 0 1-4 4H4a4 4 0 0 1-4-4z"/><path fill="#fff" d="M22.118 20.538c2.056-.03 3.701-1.684 3.681-3.703s-1.697-3.643-3.754-3.633-3.718 1.649-3.718 3.668c.002.486.101.966.293 1.414s.472.854.824 1.195c.353.341.77.61 1.23.792.458.182.95.273 1.444.267M14.258 40.178a12.3 12.3 0 0 0-.335 2.755c0 3.23 1.783 5.374 5.574 5.374 3.143 0 5.694-1.833 7.527-4.795l-1.12 4.417h6.24l3.57-14.041c.891-3.56 2.617-5.405 5.238-5.405 2.062 0 3.344 1.259 3.344 3.34a6.4 6.4 0 0 1-.278 1.97l-1.839 6.457a9.5 9.5 0 0 0-.39 2.736c0 3.064 1.839 5.31 5.684 5.31 3.29 0 5.91-2.078 7.358-7.058l-2.452-.932c-1.227 3.339-2.285 3.941-3.12 3.941-.834 0-1.284-.546-1.284-1.641a7.2 7.2 0 0 1 .278-1.698l1.786-6.293c.401-1.293.608-2.638.614-3.99 0-4.708-2.9-7.163-6.412-7.163-3.289 0-6.632 2.912-8.304 5.979l1.224-5.505h-9.529l-1.339 4.85h4.462L28.01 39.572c-2.159 4.707-6.12 4.784-6.618 4.674-.816-.181-1.336-.485-1.336-1.532.024-.847.155-1.689.39-2.504l4.18-16.286H14.04l-1.337 4.851h4.402z"/></g><defs><clipPath id="a"><path fill="#fff" d="M0 0h65v63.823H0z"/></clipPath></defs></svg>