<svg xmlns="http://www.w3.org/2000/svg" width="38" height="38" fill="none" viewBox="0 0 38 38"><rect width="38" height="38" fill="#ff6e30" rx="8"/><path fill="#fff" fill-rule="evenodd" d="M19.965 12.436q-.5 0-.965.118a9.1 9.1 0 0 1 1.996-4.76 8.67 8.67 0 0 1 7.637 8.609v6.326a9.165 9.165 0 0 1-8.53-4.687h3.828v-1.64a3.967 3.967 0 0 0-3.966-3.966" clip-rule="evenodd"/><path fill="#fff" fill-rule="evenodd" d="M9.256 16.95A9.643 9.643 0 0 1 19.52 7.328a10.1 10.1 0 0 0-2.598 7.379 2.99 2.99 0 0 0-1.014 2.245v.665h5.985-4.37c1.423 3.88 5.15 6.65 9.524 6.65q.764 0 1.497-.11v4.1h-6.65v-3.99h-5.986v3.99h-6.65V16.951" clip-rule="evenodd"/></svg>