<svg xmlns="http://www.w3.org/2000/svg" width="157" height="51" fill="none" viewBox="0 0 157 51"><g fill="#fff" fill-opacity=".2" clip-path="url(#a)"><path d="m152.11 31.168 4.356 2.875c-1.414 2.061-4.795 5.598-10.641 5.598-7.258 0-12.664-5.56-12.664-12.633 0-7.527 5.463-12.633 12.053-12.633 6.629 0 9.876 5.22 10.927 8.037l.573 1.438-17.077 6.997c1.298 2.534 3.324 3.82 6.188 3.82 2.866 0 4.852-1.4 6.285-3.499m-13.39-4.557 11.404-4.69c-.631-1.57-2.503-2.685-4.738-2.685-2.846 0-6.8 2.496-6.666 7.375M124.927 1.497h5.501v36.99h-5.501zM116.255 15.359h5.31v22.466c0 9.323-5.558 13.162-12.13 13.162-6.189 0-9.913-4.123-11.308-7.47l4.871-2.005c.878 2.062 2.999 4.502 6.437 4.502 4.222 0 6.82-2.591 6.82-7.433v-1.815h-.191c-1.261 1.513-3.668 2.874-6.724 2.874-6.38 0-12.226-5.503-12.226-12.594 0-7.13 5.846-12.69 12.226-12.69 3.037 0 5.463 1.343 6.724 2.818h.191zm.382 11.687c0-4.463-2.999-7.716-6.82-7.716-3.858 0-7.106 3.253-7.106 7.716 0 4.406 3.248 7.602 7.106 7.602 3.821.019 6.82-3.196 6.82-7.602M66.914 26.951c0 7.281-5.73 12.633-12.76 12.633s-12.76-5.37-12.76-12.633c0-7.318 5.73-12.651 12.76-12.651s12.76 5.333 12.76 12.651m-5.578 0c0-4.538-3.324-7.659-7.183-7.659s-7.182 3.12-7.182 7.66c0 4.5 3.324 7.658 7.182 7.658 3.86 0 7.183-3.158 7.183-7.659M94.784 27.008c0 7.28-5.73 12.632-12.76 12.632s-12.76-5.352-12.76-12.632c0-7.319 5.73-12.633 12.76-12.633s12.76 5.295 12.76 12.633m-5.597 0c0-4.539-3.324-7.66-7.183-7.66s-7.182 3.121-7.182 7.66c0 4.5 3.324 7.659 7.182 7.659 3.878 0 7.183-3.177 7.183-7.66M20.419 34.1c-8.004 0-14.27-6.393-14.27-14.316S12.416 5.468 20.42 5.468c4.317 0 7.469 1.683 9.8 3.84l3.839-3.802C30.81 2.424 26.474.078 20.418.078 9.455.078.229 8.93.229 19.784s9.226 19.705 20.19 19.705c5.923 0 10.393-1.929 13.888-5.522 3.591-3.555 4.7-8.548 4.7-12.595 0-1.267-.153-2.572-.325-3.536H20.419v5.257h13.009c-.383 3.291-1.433 5.541-2.98 7.073-1.872 1.872-4.833 3.933-10.03 3.933"/></g><defs><clipPath id="a"><path fill="#fff" d="M0 0h157v51H0z"/></clipPath></defs></svg>