<svg width="20" height="21" viewBox="0 0 20 21" fill="none" xmlns="http://www.w3.org/2000/svg">
<path fill-rule="evenodd" clip-rule="evenodd" d="M10.708 5.12828C10.3756 5.12828 10.0525 5.16932 9.74358 5.24654C9.94241 3.45297 10.6583 1.81636 11.7398 0.487305C16.0406 0.997025 19.3767 4.65693 19.3767 9.09531V15.4218C19.2041 15.4315 19.03 15.4364 18.8548 15.4364C15.4142 15.4364 12.4145 13.5407 10.8464 10.7347H14.6751V9.09532C14.6751 6.90438 12.899 5.12828 10.708 5.12828Z" fill="white"/>
<path fill-rule="evenodd" clip-rule="evenodd" d="M0 9.64306C0 4.31735 4.31735 0 9.64306 0C12.3059 0 14.7167 1.07934 16.4617 2.82439C14.8531 1.21575 12.6787 0.172823 10.2626 0.0196251C8.63756 1.81814 7.64798 4.20185 7.64798 6.81669C7.64798 7.01174 7.65349 7.20551 7.66435 7.39784C7.04259 7.94622 6.65039 8.74884 6.65039 9.64306V10.3081H12.6357L8.26498 10.3081C9.68805 14.1892 13.4155 16.9585 17.7898 16.9585C18.2982 16.9585 18.7978 16.9211 19.2861 16.8489V20.9487H12.6357V16.9585H6.65039V20.9487H0V13.6333V9.64306Z" fill="white"/>
</svg>
