<svg xmlns="http://www.w3.org/2000/svg" width="64" height="64" fill="none" viewBox="0 0 64 64"><g clip-path="url(#a)"><path fill="url(#b)" d="m36.206 13.897-3.017-9.143L10.88 0 0 12.343l34.011 17.371z"/><path fill="url(#c)" d="m25.6 37.851-.64-19.017L0 12.343l6.126 36.663 19.474-.183z"/><path fill="url(#d)" d="M20.206 37.486 21.394 22.4 39.497 3.84 55.68 6.766 64 27.52l-8.686 8.594-14.171-2.285-8.777 9.234z"/><path fill="url(#e)" d="M39.497 3.84 13.532 26.88l5.028 29.623L40.137 64 64 49.737z"/><path fill="#000" d="M12.251 12.251H51.75V51.75H12.25z"/><path fill="#fff" d="M16 44.343h14.811v2.468H16zM15.817 17.371h6.674c3.932 0 6.309 2.286 6.309 5.669v.091c0 3.84-2.926 5.76-6.674 5.76h-2.743v4.938h-3.566zm6.491 8.229c1.829 0 2.835-1.097 2.835-2.469v-.091c0-1.646-1.097-2.469-2.926-2.469h-2.743V25.6zM29.714 31.451l2.103-2.56c1.463 1.189 3.017 2.012 4.937 2.012 1.463 0 2.377-.549 2.377-1.554v-.092c0-.914-.548-1.371-3.291-2.103-3.292-.823-5.486-1.737-5.486-5.028v-.092c0-3.017 2.377-4.937 5.76-4.937 2.377 0 4.48.731 6.126 2.103l-1.92 2.743c-1.463-1.006-2.926-1.646-4.297-1.646-1.372 0-2.103.64-2.103 1.463v.091c0 1.098.731 1.463 3.566 2.195 3.291.914 5.211 2.102 5.211 4.937v.091c0 3.292-2.469 5.12-6.034 5.12a11.27 11.27 0 0 1-6.949-2.743"/></g><defs><linearGradient id="b" x1=".51" x2="27.38" y1="42.831" y2="7.338" gradientUnits="userSpaceOnUse"><stop offset=".016" stop-color="#765af8"/><stop offset=".382" stop-color="#b345f1"/><stop offset=".758" stop-color="#fa3293"/><stop offset=".941" stop-color="#ff318c"/></linearGradient><linearGradient id="c" x1="2.496" x2="29.323" y1="44.232" y2="8.796" gradientUnits="userSpaceOnUse"><stop offset=".016" stop-color="#765af8"/><stop offset=".382" stop-color="#b345f1"/><stop offset=".758" stop-color="#fa3293"/><stop offset=".941" stop-color="#ff318c"/></linearGradient><linearGradient id="d" x1="46.498" x2="31.336" y1="42.428" y2="6.444" gradientUnits="userSpaceOnUse"><stop offset=".183" stop-color="#765af8"/><stop offset=".238" stop-color="#8655f6"/><stop offset=".345" stop-color="#9f4cf3"/><stop offset=".443" stop-color="#ae47f2"/><stop offset=".522" stop-color="#b345f1"/></linearGradient><linearGradient id="e" x1="57.843" x2="22.581" y1="52.424" y2="25.157" gradientUnits="userSpaceOnUse"><stop offset=".016" stop-color="#765af8"/><stop offset=".382" stop-color="#b345f1"/></linearGradient><clipPath id="a"><path fill="#fff" d="M0 0h64v64H0z"/></clipPath></defs></svg>