<svg xmlns="http://www.w3.org/2000/svg" width="64" height="64" fill="none" viewBox="0 0 64 64"><g opacity=".78"><path fill="#1e252b" d="M4 24.267c0-7.094 0-10.641 1.38-13.35a12.67 12.67 0 0 1 5.536-5.536C13.626 4 17.173 4 24.266 4h15.467c7.094 0 10.641 0 13.35 1.38a12.67 12.67 0 0 1 5.536 5.536C60 13.626 60 17.173 60 24.266v15.467c0 7.094 0 10.641-1.38 13.35a12.67 12.67 0 0 1-5.536 5.536C50.374 60 46.827 60 39.734 60H24.266c-7.094 0-10.641 0-13.35-1.38a12.67 12.67 0 0 1-5.536-5.536C4 50.374 4 46.827 4 39.734z"/><path fill="url(#a)" d="M19.733 32.8c-7.8 5.74-9.333 14.133-9.333 21.133.356-2.089 1.987-6.986 5.667-9.866 5.466-4.279 15.466-2.87 26.4-10.134s12-16.733 10.6-24c-.973 7.012-4.293 10.068-8.867 12.8-9.933 5.934-16.133 3.934-24.467 10.067"/><path fill="url(#b)" d="M19.733 32.8c-7.8 5.74-9.333 14.133-9.333 21.133.356-2.089 1.987-6.986 5.667-9.866 5.466-4.279 15.466-2.87 26.4-10.134s12-16.733 10.6-24c-.973 7.012-4.293 10.068-8.867 12.8-9.933 5.934-16.133 3.934-24.467 10.067"/><path fill="url(#c)" d="M10.493 51.064c.428-6.325 2.482-13.29 9.24-18.264 4.345-3.197 8.11-4.184 12.125-5.237 2.344-.615 4.773-1.252 7.453-2.363-.978.933-5.624 3.113-9.128 4.57-3.496 1.453-7.181 2.984-10.25 5.03-6.156 4.104-8.66 11.245-9.44 16.264"/><path fill="url(#d)" d="M10.493 51.064c.428-6.325 2.482-13.29 9.24-18.264 4.345-3.197 8.11-4.184 12.125-5.237 2.344-.615 4.773-1.252 7.453-2.363-.978.933-5.624 3.113-9.128 4.57-3.496 1.453-7.181 2.984-10.25 5.03-6.156 4.104-8.66 11.245-9.44 16.264"/><path fill="url(#e)" d="M48.436 28.742a14 14 0 0 1-2.57 1.991c-4.266 2.56-8.801 3.386-13.214 4.19-3.516.64-6.955 1.265-10.119 2.744C15.401 41 11.001 47.932 10.4 53.932v-.002q0-.687.021-1.391c.037-.744.113-1.568.24-2.446.942-4.935 3.503-11.447 9.272-15.293 2.443-1.628 5.275-2.93 8.092-4.127 2.478-.813 4.71-1.32 6.838-1.802 3.348-.759 6.435-1.459 9.804-3.204 7.068-3.663 8.92-11.19 8.422-15.617 1.057 5.61.63 12.51-4.654 18.692"/><path fill="url(#f)" d="M48.435 28.742a14 14 0 0 1-2.568 1.991c-4.267 2.56-8.802 3.386-13.215 4.19-3.516.64-6.955 1.265-10.119 2.744-4.102 1.917-7.3 5.024-9.391 8.46 1.845-2.593 4.656-5.49 8.125-6.594 3.384-1.077 6.613-1.188 9.966-1.303.962-.033 1.933-.067 2.922-.124 2.664-.97 5.456-2.275 8.312-4.173 2.461-1.635 4.422-3.382 5.968-5.191"/><path fill="url(#g)" d="M48.435 28.742a14 14 0 0 1-2.568 1.991c-4.267 2.56-8.802 3.386-13.215 4.19-3.516.64-6.955 1.265-10.119 2.744-4.102 1.917-7.3 5.024-9.391 8.46 1.845-2.593 4.656-5.49 8.125-6.594 3.384-1.077 6.613-1.188 9.966-1.303.962-.033 1.933-.067 2.922-.124 2.664-.97 5.456-2.275 8.312-4.173 2.461-1.635 4.422-3.382 5.968-5.191"/><path fill="url(#h)" d="m53.089 10.05-.022-.117c-.973 7.012-4.293 10.068-8.867 12.8a37.5 37.5 0 0 1-4.889 2.467c-.978.934-5.624 3.113-9.128 4.57h-.001q-1.071.444-2.157.903c2.478-.813 4.71-1.32 6.837-1.802 3.35-.759 6.436-1.459 9.805-3.204 7.068-3.663 8.92-11.19 8.422-15.617"/><path fill="url(#i)" d="m53.089 10.05-.022-.117c-.973 7.012-4.293 10.068-8.867 12.8a37.5 37.5 0 0 1-4.889 2.467c-.978.934-5.624 3.113-9.128 4.57h-.001q-1.071.444-2.157.903c2.478-.813 4.71-1.32 6.837-1.802 3.35-.759 6.436-1.459 9.805-3.204 7.068-3.663 8.92-11.19 8.422-15.617"/></g><defs><linearGradient id="a" x1="34.8" x2="11.733" y1="36.4" y2="52.933" gradientUnits="userSpaceOnUse"><stop stop-color="#fe5004"/><stop offset=".603" stop-color="#ffb915"/><stop offset="1" stop-color="#fffc41"/></linearGradient><linearGradient id="b" x1="25.667" x2="25.8" y1="37.8" y2="40.2" gradientUnits="userSpaceOnUse"><stop stop-color="#fd3e00"/><stop offset="1" stop-color="#fd4400" stop-opacity="0"/></linearGradient><linearGradient id="c" x1="39.333" x2="6.8" y1="24" y2="52.933" gradientUnits="userSpaceOnUse"><stop stop-color="#005fc6"/><stop offset=".28" stop-color="#23a4df"/><stop offset=".465" stop-color="#3ac2b7"/><stop offset=".641" stop-color="#60ec7a"/><stop offset=".819" stop-color="#cffdbd"/><stop offset="1" stop-color="#d0fcb6"/></linearGradient><linearGradient id="d" x1="32.733" x2="29.933" y1="29.533" y2="27" gradientUnits="userSpaceOnUse"><stop stop-color="#0061cb"/><stop offset="1" stop-color="#067eea" stop-opacity="0"/></linearGradient><linearGradient id="e" x1="53.2" x2="10.4" y1="10" y2="53.867" gradientUnits="userSpaceOnUse"><stop stop-color="#8e55f1"/><stop offset=".141" stop-color="#8b48df"/><stop offset=".275" stop-color="#e04dd9"/><stop offset=".492" stop-color="#f496c8"/><stop offset=".633" stop-color="#fad2ba"/><stop offset=".857" stop-color="#fef7e5"/><stop offset="1" stop-color="#fff5bf"/></linearGradient><linearGradient id="f" x1="49" x2="14.067" y1="28.333" y2="44.133" gradientUnits="userSpaceOnUse"><stop stop-color="#f41a73"/><stop offset=".4" stop-color="#fc50a3"/><stop offset=".585" stop-color="#fe9485"/><stop offset=".703" stop-color="#ffaf88"/><stop offset="1" stop-color="#ffc385"/></linearGradient><linearGradient id="g" x1="36.4" x2="36.467" y1="33.2" y2="36.4" gradientUnits="userSpaceOnUse"><stop stop-color="#9b0008"/><stop offset="1" stop-color="#ea115a" stop-opacity="0"/></linearGradient><linearGradient id="h" x1="53.2" x2="21.667" y1="13.6" y2="34.2" gradientUnits="userSpaceOnUse"><stop stop-color="#231283"/><stop offset=".363" stop-color="#7053c6"/><stop offset=".466" stop-color="#7272db"/><stop offset=".634" stop-color="#399ee9"/><stop offset="1" stop-color="#00cfff"/></linearGradient><linearGradient id="i" x1="45.333" x2="46.733" y1="24" y2="25.8" gradientUnits="userSpaceOnUse"><stop stop-color="#3f259d" stop-opacity="0"/><stop offset="1" stop-color="#412daa"/></linearGradient></defs></svg>