<svg xmlns="http://www.w3.org/2000/svg" width="64" height="57" fill="none" viewBox="0 0 64 57"><g clip-path="url(#a)"><path fill="#fdb300" d="M32 0 13.964 1.872 0 20.278l32 36.589 32-36.59L50.036 1.873z"/><path fill="#eb6c00" d="m0 20.278 32 36.59-19.038-36.59zM51.038 20.278 32 56.868l32-36.59z"/><path fill="#fdad00" d="M12.962 20.278 32 56.868l19.039-36.59z"/><path fill="#fdd231" d="M13.964 1.872 12.96 20.278 32 0zM51.038 20.278 50.036 1.872 32 0z"/><path fill="#fdad00" d="M51.038 20.278H64L50.036 1.872zM0 20.278h12.962l1.002-18.406z"/><path fill="#feeeb7" d="M32 0 12.962 20.278h38.077z"/></g><defs><clipPath id="a"><path fill="#fff" d="M0 0h64v56.95H0z"/></clipPath></defs></svg>