<svg xmlns="http://www.w3.org/2000/svg" width="65" height="64" fill="none" viewBox="0 0 65 64"><g fill-rule="evenodd" clip-path="url(#a)" clip-rule="evenodd" opacity=".78"><path fill="#e01e5a" d="M13.672 40.22c0 .877-.175 1.747-.517 2.559a6.7 6.7 0 0 1-1.477 2.17 6.8 6.8 0 0 1-2.21 1.449 6.9 6.9 0 0 1-2.608.507c-.894 0-1.78-.173-2.605-.509a6.8 6.8 0 0 1-2.21-1.449 6.7 6.7 0 0 1-1.474-2.17 6.6 6.6 0 0 1-.517-2.558c0-.878.175-1.748.517-2.56a6.7 6.7 0 0 1 1.476-2.169 6.8 6.8 0 0 1 2.21-1.449 6.9 6.9 0 0 1 2.606-.507h6.811v6.685zm3.404 0c0-.879.175-1.749.517-2.56a6.7 6.7 0 0 1 1.476-2.17 6.8 6.8 0 0 1 2.21-1.449 6.9 6.9 0 0 1 2.606-.507c.894-.001 1.78.171 2.606.507a6.8 6.8 0 0 1 2.21 1.45 6.7 6.7 0 0 1 1.476 2.169c.342.811.517 1.681.517 2.56v16.716c0 .878-.175 1.747-.517 2.559a6.7 6.7 0 0 1-1.476 2.17 6.8 6.8 0 0 1-2.21 1.449 6.9 6.9 0 0 1-2.606.507c-.895 0-1.78-.172-2.607-.508a6.8 6.8 0 0 1-2.21-1.449 6.7 6.7 0 0 1-1.475-2.17 6.6 6.6 0 0 1-.517-2.559z"/><path fill="#36c5f0" d="M23.885 13.374c-.895 0-1.78-.172-2.607-.508a6.8 6.8 0 0 1-2.21-1.45 6.7 6.7 0 0 1-1.476-2.17 6.6 6.6 0 0 1-.516-2.56c0-.879.175-1.748.517-2.56a6.7 6.7 0 0 1 1.476-2.17 6.8 6.8 0 0 1 2.21-1.449A6.9 6.9 0 0 1 23.884 0c.894 0 1.78.172 2.606.507a6.8 6.8 0 0 1 2.21 1.45 6.7 6.7 0 0 1 1.476 2.17c.342.81.517 1.68.517 2.558v6.691h-6.806zm0 3.393c.894 0 1.78.172 2.606.507a6.8 6.8 0 0 1 2.21 1.45 6.7 6.7 0 0 1 1.476 2.17c.342.81.517 1.68.517 2.558s-.175 1.748-.517 2.56a6.7 6.7 0 0 1-1.476 2.17 6.8 6.8 0 0 1-2.21 1.448 6.9 6.9 0 0 1-2.606.508H6.809c-.894 0-1.78-.172-2.606-.507a6.8 6.8 0 0 1-2.21-1.449 6.7 6.7 0 0 1-1.475-2.169 6.58 6.58 0 0 1-.001-5.117 6.7 6.7 0 0 1 1.476-2.17 6.8 6.8 0 0 1 2.21-1.449 6.9 6.9 0 0 1 2.606-.508h17.079z"/><path fill="#2eb67d" d="M51.174 23.452c0-.878.175-1.748.517-2.56a6.7 6.7 0 0 1 1.476-2.17 6.8 6.8 0 0 1 2.211-1.448 6.9 6.9 0 0 1 2.607-.507c.895 0 1.78.172 2.607.507a6.8 6.8 0 0 1 2.21 1.45 6.7 6.7 0 0 1 1.475 2.17c.342.81.518 1.68.517 2.558 0 .878-.175 1.748-.517 2.56a6.7 6.7 0 0 1-1.476 2.17 6.8 6.8 0 0 1-2.21 1.448 6.9 6.9 0 0 1-2.606.508h-6.811v-6.686m-3.405 0c.001.878-.175 1.748-.516 2.56a6.7 6.7 0 0 1-1.476 2.17 6.8 6.8 0 0 1-2.21 1.448 6.9 6.9 0 0 1-2.606.508 6.9 6.9 0 0 1-2.608-.507 6.8 6.8 0 0 1-2.21-1.449 6.7 6.7 0 0 1-1.477-2.17 6.6 6.6 0 0 1-.517-2.56V6.685c0-.878.175-1.748.517-2.56a6.7 6.7 0 0 1 1.477-2.17 6.8 6.8 0 0 1 2.21-1.448A6.9 6.9 0 0 1 40.961 0c.894 0 1.78.172 2.606.507a6.8 6.8 0 0 1 2.21 1.45 6.7 6.7 0 0 1 1.476 2.17c.341.81.517 1.68.516 2.558v16.77z"/><path fill="#ecb22e" d="M40.96 50.247c.895 0 1.78.172 2.607.508a6.8 6.8 0 0 1 2.21 1.449 6.7 6.7 0 0 1 1.475 2.17c.342.811.518 1.68.517 2.559a6.6 6.6 0 0 1-.516 2.56 6.7 6.7 0 0 1-1.475 2.17 6.8 6.8 0 0 1-2.21 1.45 6.9 6.9 0 0 1-2.607.508c-.895 0-1.78-.172-2.608-.508a6.8 6.8 0 0 1-2.21-1.45 6.7 6.7 0 0 1-1.475-2.17 6.6 6.6 0 0 1-.516-2.56v-6.686zm0-3.342c-.894 0-1.78-.172-2.606-.508a6.8 6.8 0 0 1-2.21-1.449 6.7 6.7 0 0 1-1.475-2.17 6.6 6.6 0 0 1-.517-2.559c0-.878.175-1.748.517-2.56a6.7 6.7 0 0 1 1.476-2.169 6.8 6.8 0 0 1 2.21-1.449 6.9 6.9 0 0 1 2.606-.507h17.076c.894-.001 1.78.171 2.606.507a6.8 6.8 0 0 1 2.21 1.45 6.7 6.7 0 0 1 1.476 2.169c.342.811.517 1.681.516 2.56.001.877-.174 1.747-.516 2.558a6.7 6.7 0 0 1-1.476 2.17 6.8 6.8 0 0 1-2.21 1.45 6.9 6.9 0 0 1-2.606.507z"/></g><defs><clipPath id="a"><path fill="#fff" d="M0 0h65v63.823H0z"/></clipPath></defs></svg>