<svg xmlns="http://www.w3.org/2000/svg" width="58" height="58" fill="none" viewBox="0 0 58 58"><rect width="58" height="58" fill="#1e252b" rx="8"/><path fill="#fff" fill-opacity=".78" d="M40.45 22.996c.019.262.019.523.019.784 0 7.988-6.08 17.192-17.19 17.192-3.423 0-6.603-.992-9.279-2.714.486.056.954.075 1.46.075 2.719.007 5.361-.903 7.501-2.581a6.05 6.05 0 0 1-5.65-4.19c.373.056.748.093 1.141.093.541 0 1.086-.075 1.592-.205a6.04 6.04 0 0 1-4.846-5.93v-.075c.806.449 1.74.73 2.73.767a6.03 6.03 0 0 1-2.693-5.031c0-1.122.298-2.151.822-3.048a17.19 17.19 0 0 0 12.459 6.322 7 7 0 0 1-.15-1.384 6.04 6.04 0 0 1 6.041-6.042c1.74 0 3.311.729 4.415 1.908a12 12 0 0 0 3.834-1.46 6.03 6.03 0 0 1-2.657 3.33c1.2-.137 2.373-.452 3.479-.936a13 13 0 0 1-3.029 3.125"/></svg>