<svg xmlns="http://www.w3.org/2000/svg" width="65" height="63" fill="none" viewBox="0 0 65 63"><g opacity=".78"><mask id="a" width="65" height="63" x="0" y="0" maskUnits="userSpaceOnUse" style="mask-type:alpha"><path fill="#fff" d="M45.914 62.497a4.13 4.13 0 0 0 3.211-.12l13.33-6.25a4 4 0 0 0 1.672-1.456 3.87 3.87 0 0 0 .62-2.098v-42.38c0-.742-.215-1.47-.62-2.098a4 4 0 0 0-1.671-1.455L49.126.39A4.13 4.13 0 0 0 46.7.056a4.07 4.07 0 0 0-2.175 1.095l-25.52 22.686-11.115-8.221a2.74 2.74 0 0 0-1.75-.532 2.73 2.73 0 0 0-1.693.68l-3.565 3.16a2.585 2.585 0 0 0-.003 3.888l9.64 8.57-9.64 8.57a2.585 2.585 0 0 0 .003 3.887L4.448 47a2.73 2.73 0 0 0 1.694.681 2.74 2.74 0 0 0 1.749-.531l11.116-8.222 25.52 22.686c.394.385.866.685 1.386.883m2.656-45.436L29.207 31.383 48.57 45.705z"/></mask><g mask="url(#a)"><path fill="#0065a9" d="M62.495 6.65 49.155.39a4.13 4.13 0 0 0-2.426-.333 4.07 4.07 0 0 0-2.176 1.095L.88 39.952a2.584 2.584 0 0 0 .003 3.888L4.451 47a2.74 2.74 0 0 0 1.694.681c.63.028 1.249-.16 1.75-.531L60.489 8.273c1.764-1.304 4.299-.078 4.299 2.08v-.151c0-.742-.216-1.47-.62-2.098a4 4 0 0 0-1.672-1.455"/><path fill="#007acc" d="m62.495 56.116-13.34 6.259a4.13 4.13 0 0 1-2.426.333 4.07 4.07 0 0 1-2.176-1.095L.88 22.813a2.584 2.584 0 0 1 .003-3.888l3.568-3.16a2.74 2.74 0 0 1 1.695-.681c.629-.027 1.248.16 1.75.532l52.592 38.876c1.764 1.304 4.299.078 4.299-2.08v.151a3.87 3.87 0 0 1-.62 2.098 4 4 0 0 1-1.672 1.455"/><path fill="#1f9cf0" d="M49.113 62.38a4.13 4.13 0 0 1-2.426.333 4.07 4.07 0 0 1-2.176-1.096c1.493 1.455 4.046.424 4.046-1.634V2.79c0-2.058-2.553-3.088-4.046-1.633A4.07 4.07 0 0 1 46.687.06a4.13 4.13 0 0 1 2.426.333l13.338 6.25a4 4 0 0 1 1.672 1.455 3.87 3.87 0 0 1 .62 2.098v42.38c0 1.516-.89 2.897-2.292 3.554z"/><path fill="url(#b)" fill-opacity=".25" d="M45.914 62.496a4.13 4.13 0 0 0 3.211-.12l13.33-6.25a4 4 0 0 0 1.672-1.455c.405-.629.62-1.356.62-2.099v-42.38c0-.742-.215-1.47-.62-2.098a4 4 0 0 0-1.671-1.455L49.126.389A4.13 4.13 0 0 0 46.7.056a4.07 4.07 0 0 0-2.175 1.096l-25.52 22.686-11.115-8.222a2.74 2.74 0 0 0-1.75-.532 2.73 2.73 0 0 0-1.693.681l-3.565 3.16a2.585 2.585 0 0 0-.003 3.888l9.64 8.57-9.64 8.569a2.585 2.585 0 0 0 .003 3.888L4.448 47a2.73 2.73 0 0 0 1.694.68 2.74 2.74 0 0 0 1.749-.531l11.116-8.222 25.519 22.686c.394.385.867.686 1.387.883M48.57 17.06 29.207 31.383 48.57 45.704z"/></g></g><defs><linearGradient id="b" x1="32.374" x2="32.374" y1="0" y2="62.765" gradientUnits="userSpaceOnUse"><stop stop-color="#fff"/><stop offset="1" stop-color="#fff" stop-opacity="0"/></linearGradient></defs></svg>