<svg xmlns="http://www.w3.org/2000/svg" width="64" height="64" fill="none" viewBox="0 0 64 64"><g fill-rule="evenodd" clip-rule="evenodd" opacity=".78"><path fill="#fdbd39" d="m12.632 40.337-2.93 1.052-.157 8.566 10.14-3.641c-3.477-1.149-6.018-3.17-7.053-5.977"/><path fill="#f69833" d="M14.165 31.276 4 34.926l5.702 6.462 2.93-1.051c-1.033-2.8-.396-5.965 1.533-9.061"/><path fill="#fecf33" d="M31.27 18.915C18.326 23.563 9.98 33.154 12.632 40.337l46.873-16.832c-2.65-7.183-15.291-9.238-28.235-4.59"/><path fill="#ee6723" d="M40.866 44.927C53.81 40.279 62.17 30.731 59.505 23.505L12.632 40.337c2.665 7.225 15.29 9.238 28.234 4.59"/><path fill="#f69833" d="M59.505 23.505 12.632 40.337c.917 2.487 4.417 3.713 9.328 3.713 4.788 0 10.917-1.164 17.307-3.458 12.944-4.648 22.05-12.173 20.238-17.087"/><path fill="#fdbd39" d="M50.176 19.792c-4.788 0-10.917 1.164-17.307 3.458-12.943 4.648-22.05 12.173-20.237 17.087l46.873-16.832c-.918-2.488-4.418-3.713-9.33-3.713"/><path fill="#ee6723" d="M47.587 50.409c-1.38 0-3.414-1.225-6.048-3.64-3.115-2.857-6.684-7.041-10.05-11.782-3.364-4.742-6.13-9.481-7.785-13.347-1.804-4.213-2.061-6.803-.765-7.7a1.76 1.76 0 0 1 1.019-.295c1.055 0 3.11.772 6.91 4.45l.083.08-.011.114q-.04.397-.071.793l-.043.52-.372-.37c-4.095-4.055-5.898-4.493-6.483-4.493a.7.7 0 0 0-.395.1c-.562.388-.598 2.29 1.15 6.374 1.627 3.797 4.352 8.465 7.673 13.145 3.322 4.68 6.836 8.803 9.896 11.609 3.3 3.026 4.787 3.352 5.273 3.352a.7.7 0 0 0 .406-.105c.593-.41.594-2.448-1.357-6.844l-.09-.201.197-.106q.295-.159.563-.309l.235-.13.108.243c1.383 3.115 2.676 7.073.98 8.244-.285.198-.63.298-1.023.298m0-.48v.24z"/><path fill="#ee6723" d="m41.18 44.796-.02.24c-.326 3.98-1.188 8.764-3.435 8.958a2 2 0 0 1-.139.006c-1.526 0-2.97-2.15-4.29-6.388-1.251-4.01-2.221-9.395-2.733-15.162-.511-5.766-.503-11.235.022-15.4.572-4.538 1.663-6.908 3.24-7.044q.07-.006.142-.006c1.108 0 2.776 1.232 4.484 6.972l-1.115.211c-.57-1.918-1.192-3.478-1.809-4.55-.57-.991-1.126-1.537-1.563-1.537q-.022 0-.043.002c-.683.059-1.679 1.689-2.234 6.088-.516 4.09-.522 9.477-.018 15.169.505 5.692 1.46 10.996 2.687 14.935.55 1.764 1.154 3.217 1.745 4.204.545.91 1.072 1.41 1.485 1.41l.043-.001c.654-.057 1.886-1.753 2.405-7.72z"/></g></svg>